<?xml version="1.0" encoding="UTF-8" standalone="no"?>
<!-- Created with Inkscape (http://www.inkscape.org/) -->

<svg
   xmlns:dc="http://purl.org/dc/elements/1.1/"
   xmlns:cc="http://creativecommons.org/ns#"
   xmlns:rdf="http://www.w3.org/1999/02/22-rdf-syntax-ns#"
   xmlns:svg="http://www.w3.org/2000/svg"
   xmlns="http://www.w3.org/2000/svg"
   xmlns:sodipodi="http://sodipodi.sourceforge.net/DTD/sodipodi-0.dtd"
   xmlns:inkscape="http://www.inkscape.org/namespaces/inkscape"
   width="215.42232"
   height="245.49268"
   id="svg3101"
   version="1.1"
   inkscape:version="0.48.3.1 r9886"
   sodipodi:docname="icon_siluete.svg">
  <defs
     id="defs3103">
    <filter
       id="filter3172"
       inkscape:label="Drop Shadow"
       color-interpolation-filters="sRGB">
      <feFlood
         id="feFlood3174"
         flood-opacity="0.5"
         flood-color="rgb(0,0,0)"
         result="flood" />
      <feComposite
         id="feComposite3176"
         in2="SourceGraphic"
         in="flood"
         operator="in"
         result="composite1" />
      <feGaussianBlur
         id="feGaussianBlur3178"
         stdDeviation="2"
         result="blur" />
      <feOffset
         id="feOffset3180"
         dx="3"
         dy="3"
         result="offset" />
      <feComposite
         id="feComposite3182"
         in2="offset"
         in="SourceGraphic"
         operator="over"
         result="composite2" />
    </filter>
  </defs>
  <sodipodi:namedview
     id="base"
     pagecolor="#ffffff"
     bordercolor="#666666"
     borderopacity="1.0"
     inkscape:pageopacity="0.0"
     inkscape:pageshadow="2"
     inkscape:zoom="1.979899"
     inkscape:cx="216.73559"
     inkscape:cy="23.892354"
     inkscape:document-units="px"
     inkscape:current-layer="layer1"
     showgrid="false"
     inkscape:window-width="1920"
     inkscape:window-height="1017"
     inkscape:window-x="-8"
     inkscape:window-y="-8"
     inkscape:window-maximized="1"
     fit-margin-top="0"
     fit-margin-left="0"
     fit-margin-right="0"
     fit-margin-bottom="0" />
  <metadata
     id="metadata3106">
    <rdf:RDF>
      <cc:Work
         rdf:about="">
        <dc:format>image/svg+xml</dc:format>
        <dc:type
           rdf:resource="http://purl.org/dc/dcmitype/StillImage" />
        <dc:title />
      </cc:Work>
    </rdf:RDF>
  </metadata>
  <g
     inkscape:label="Layer 1"
     inkscape:groupmode="layer"
     id="layer1"
     transform="translate(-219.46032,-198.34111)">
    <path
       inkscape:export-ydpi="11.944878"
       inkscape:export-xdpi="11.944878"
       inkscape:export-filename="E:\Art\code\Memslate\ionic\memslate\ionic\www\img\icon.png"
       inkscape:connector-curvature="0"
       id="use3035"
       d="m 297.55968,222.4346 c -4.8048,0 -8.6767,4.04253 -8.6767,9.05922 l 0,47.41194 c 0,5.01669 3.8719,9.05922 8.6767,9.05922 l 48.2069,0 c 4.8048,0 8.6767,-4.04253 8.6767,-9.05922 l 0,-47.41194 c 0,-5.01669 -3.8719,-9.05922 -8.6767,-9.05922 l -48.2069,0 z"
       style="fill:none;stroke:#cccccc;stroke-width:9.19030571;stroke-miterlimit:4;stroke-opacity:1;stroke-dasharray:none" />
    <path
       sodipodi:nodetypes="ccccccsscsccccscssccccccccccscsccscccccccccccccccscccsc"
       inkscape:export-ydpi="11.944878"
       inkscape:export-xdpi="11.944878"
       inkscape:export-filename="E:\Art\code\Memslate\ionic\memslate\ionic\www\img\icon.png"
       id="use3037"
       d="m 309.54188,249.91186 c 1.9685,3.94319 4.1114,7.16225 7.5399,11.56817 0.5783,0.59249 0.6458,0.72756 0.4325,0.88392 -1.7998,1.31892 -4.0426,2.8205 -5.3244,3.57073 -3.4323,2.00883 -8.613,4.23063 -12.3579,5.29834 -0.8459,0.24119 -1.6045,0.49775 -1.6876,0.5675 -0.085,0.0709 0.3184,1.36701 0.9186,2.948 0.8455,2.22718 1.137,2.82243 1.3778,2.82243 0.168,0 1.0631,-0.23985 1.9867,-0.53736 6.6112,-2.12973 12.9329,-5.47425 18.1897,-9.61238 0.6002,-0.47248 1.2142,-0.94574 1.3618,-1.05463 0.2247,-0.16576 0.4211,-0.078 1.1963,0.54741 3.7895,3.057 9.1544,6.1038 13.9119,7.89982 2.1069,0.79535 5.6831,1.8264 6.1203,1.76275 0.2515,-0.0366 0.5473,-0.63797 1.3351,-2.69687 0.5576,-1.45728 0.9927,-2.75244 0.9666,-2.87769 -0.03,-0.14386 -1.1177,-0.53179 -2.9533,-1.05464 -3.5514,-1.01161 -5.9686,-1.91338 -8.9079,-3.31461 -2.1588,-1.02913 -5.4957,-3.00411 -6.7236,-3.98255 l -0.5875,-0.47208 1.0307,-1.26056 c 2.293,-2.80423 3.9066,-5.33803 5.2015,-8.17602 0.8941,-1.95939 1.9124,-5.00844 2.131,-6.38314 l 0.1174,-0.76336 4.9827,-0.0401 4.9774,-0.0452 0.048,-2.30517 c 0.032,-1.56527 -0.017,-2.38007 -0.1496,-2.53116 -0.1635,-0.18528 -1.8776,-0.22599 -10.1737,-0.22599 l -9.976,0 0,-2.38553 c 0,-2.17034 0.032,-2.42925 0.3525,-2.81239 0.4879,-0.58333 0.3889,-1.34123 -0.235,-1.77783 -0.447,-0.31277 -0.7016,-0.33648 -3.5034,-0.33648 l -3.0227,0 2e-4,-1e-5 -0.043,3.65611 -0.048,3.65611 -9.9494,0.0402 -9.9546,0.0401 -0.048,2.53117 -0.048,2.53115 5.0949,0 5.0948,0 8.1438,0.53376 m -2.4295,-0.85514 7.6903,0 7.6903,0 0,0.44196 c -0.011,0.74336 -1.2921,4.08862 -2.3124,6.0115 -1.4036,2.6453 -4.5134,7.02902 -4.9934,7.04101 -0.1166,0.003 -0.8278,-0.69585 -1.586,-1.55685 -1.6639,-1.88931 -3.3477,-4.24083 -4.4541,-6.21741 -0.8651,-1.5457 -2.0347,-4.58937 -2.0347,-5.29835 z"
       style="fill:#cccccc;fill-opacity:1;stroke:#cccccc;stroke-width:4.06449986;stroke-miterlimit:4;stroke-opacity:1;stroke-dasharray:none"
       inkscape:connector-curvature="0" />
    <path
       inkscape:export-ydpi="11.944878"
       inkscape:export-xdpi="11.944878"
       inkscape:export-filename="E:\Art\code\Memslate\ionic\memslate\ionic\www\img\icon.png"
       inkscape:connector-curvature="0"
       id="use3039"
       d="m 347.01248,256.48639 c -5.3347,0 -9.6335,4.29877 -9.6335,9.63345 l 0,50.41713 c 0,5.33467 4.2988,9.63344 9.6335,9.63344 l 53.52253,0 c 5.3347,0 9.6335,-4.29877 9.6335,-9.63344 l 0,-50.41713 c 0,-5.33468 -4.2988,-9.63345 -9.6335,-9.63345 l -53.52253,0 z m 21.54843,11.59816 9.9187,0 18.6014,46.45601 -10.2039,0 -4.0561,-10.55242 -18.5698,0 -3.83443,10.55242 -9.9502,0 18.09433,-46.45601 z m 4.8485,10.83763 -6.2744,17.23878 12.6756,0 -6.4012,-17.23878 z"
       style="fill:#dedede;fill-opacity:1;fill-rule:evenodd;stroke:none" />
    <path
       inkscape:export-ydpi="11.944878"
       inkscape:export-xdpi="11.944878"
       inkscape:export-filename="E:\Art\code\Memslate\ionic\memslate\ionic\www\img\icon.png"
       sodipodi:nodetypes="cssssssssssssssssczccsasccc"
       inkscape:connector-curvature="0"
       id="use3033"
       d="m 325.21708,198.83929 c -26.5903,0.23199 -48.997,8.51764 -68.5625,25.28126 -5.4828,4.69769 -14.366,14.5373 -20.0625,27.0625 -4.4486,9.78145 -7.0937,22.28816 -7.0937,33.53125 0,7.71168 0.269,8.8936 4.1875,17.81249 1.2212,2.77957 1.9375,6.66354 1.9375,10.625 0,5.74922 -0.5489,7.29248 -7.0625,20.03125 -7.3378,14.35056 -9.327,19.61292 -8.375,22.09375 0.6615,1.72395 5.4797,4.40625 7.9375,4.40625 3.9678,0 5.375,2.88326 5.375,11.0625 0,7.55807 0.076,7.85129 3.0937,10 2.8395,2.0219 3.0521,2.5398 2.4688,6.1875 -0.5224,3.26646 -0.084,5.05923 2.4062,9.84375 2.8901,5.55316 2.9972,6.25892 2.4063,14.125 -0.5579,7.42654 -0.4049,8.55089 1.4687,10.90625 3.7349,4.69525 15.4366,6.01297 34.1563,3.875 14.025,-1.6018 23.512,2.16988 27.4375,10.875 1.8349,4.06907 1.06939,8.22114 3.17989,6.28444 11.84076,-11.16318 27.11597,-16.55178 40.15856,-22.05939 13.04259,-5.50762 28.77741,-9.02898 50.72398,-11.28755 l -0.375,-11.46875 c -0.6113,-19.25888 6.8609,-25.50271 20.375,-54.0625 5.6749,-11.99288 9.2081,-20.65292 11.3044,-31.66142 2.2529,-11.83069 2.7362,-17.25009 1.2071,-36.10967 -1.9435,-23.9707 -17.2444,-44.20408 -38.8555,-60.7914 -18.3377,-12.40665 -44.36693,-15.47641 -61.06243,-16.37501 -2.9086,-0.12167 -5.8739,-0.20627 -8.3748,-0.1875 z"
       style="fill:#ffffff;fill-opacity:1;stroke:#666666" />
  </g>
</svg>
