<?xml version="1.0" encoding="UTF-8" standalone="no"?>
<!-- Created with Inkscape (http://www.inkscape.org/) -->

<svg
   xmlns:dc="http://purl.org/dc/elements/1.1/"
   xmlns:cc="http://creativecommons.org/ns#"
   xmlns:rdf="http://www.w3.org/1999/02/22-rdf-syntax-ns#"
   xmlns:svg="http://www.w3.org/2000/svg"
   xmlns="http://www.w3.org/2000/svg"
   xmlns:sodipodi="http://sodipodi.sourceforge.net/DTD/sodipodi-0.dtd"
   xmlns:inkscape="http://www.inkscape.org/namespaces/inkscape"
   width="228.50499"
   height="258.38141"
   id="svg3101"
   version="1.1"
   inkscape:version="0.48.3.1 r9886"
   sodipodi:docname="icon_siluete_void.svg">
  <defs
     id="defs3103">
    <filter
       id="filter3172"
       inkscape:label="Drop Shadow"
       color-interpolation-filters="sRGB">
      <feFlood
         id="feFlood3174"
         flood-opacity="0.5"
         flood-color="rgb(0,0,0)"
         result="flood" />
      <feComposite
         id="feComposite3176"
         in2="SourceGraphic"
         in="flood"
         operator="in"
         result="composite1" />
      <feGaussianBlur
         id="feGaussianBlur3178"
         stdDeviation="2"
         result="blur" />
      <feOffset
         id="feOffset3180"
         dx="3"
         dy="3"
         result="offset" />
      <feComposite
         id="feComposite3182"
         in2="offset"
         in="SourceGraphic"
         operator="over"
         result="composite2" />
    </filter>
  </defs>
  <sodipodi:namedview
     id="base"
     pagecolor="#18402d"
     bordercolor="#666666"
     borderopacity="1.0"
     inkscape:pageopacity="1"
     inkscape:pageshadow="2"
     inkscape:zoom="1.979899"
     inkscape:cx="144.53984"
     inkscape:cy="30.280718"
     inkscape:document-units="px"
     inkscape:current-layer="layer1"
     showgrid="false"
     inkscape:window-width="1920"
     inkscape:window-height="1017"
     inkscape:window-x="-8"
     inkscape:window-y="-8"
     inkscape:window-maximized="1"
     fit-margin-top="0"
     fit-margin-left="0"
     fit-margin-right="0"
     fit-margin-bottom="0" />
  <metadata
     id="metadata3106">
    <rdf:RDF>
      <cc:Work
         rdf:about="">
        <dc:format>image/svg+xml</dc:format>
        <dc:type
           rdf:resource="http://purl.org/dc/dcmitype/StillImage" />
        <dc:title></dc:title>
      </cc:Work>
    </rdf:RDF>
  </metadata>
  <g
     inkscape:label="Layer 1"
     inkscape:groupmode="layer"
     id="layer1"
     transform="translate(-212.86417,-191.84072)">
    <path
       inkscape:export-ydpi="11.944878"
       inkscape:export-xdpi="11.944878"
       inkscape:export-filename="E:\Art\code\Memslate\ionic\memslate\ionic\www\img\icon.png"
       sodipodi:nodetypes="cssssssssssssssssczccsasccc"
       inkscape:connector-curvature="0"
       id="use3033"
       d="m 325.21708,198.83929 c -26.5903,0.23199 -48.997,8.51764 -68.5625,25.28126 -5.4828,4.69769 -14.366,14.5373 -20.0625,27.0625 -4.4486,9.78145 -7.0937,22.28816 -7.0937,33.53125 0,7.71168 0.269,8.8936 4.1875,17.81249 1.2212,2.77957 1.9375,6.66354 1.9375,10.625 0,5.74922 -0.5489,7.29248 -7.0625,20.03125 -7.3378,14.35056 -9.327,19.61292 -8.375,22.09375 0.6615,1.72395 5.4797,4.40625 7.9375,4.40625 3.9678,0 5.375,2.88326 5.375,11.0625 0,7.55807 0.076,7.85129 3.0937,10 2.8395,2.0219 3.0521,2.5398 2.4688,6.1875 -0.5224,3.26646 -0.084,5.05923 2.4062,9.84375 2.8901,5.55316 2.9972,6.25892 2.4063,14.125 -0.5579,7.42654 -0.4049,8.55089 1.4687,10.90625 3.7349,4.69525 15.4366,6.01297 34.1563,3.875 14.025,-1.6018 23.512,2.16988 27.4375,10.875 1.8349,4.06907 1.06939,8.22114 3.17989,6.28444 11.84076,-11.16318 27.11597,-16.55178 40.15856,-22.05939 13.04259,-5.50762 28.77741,-9.02898 50.72398,-11.28755 l -0.375,-11.46875 c -0.6113,-19.25888 6.8609,-25.50271 20.375,-54.0625 5.6749,-11.99288 9.2081,-20.65292 11.3044,-31.66142 2.2529,-11.83069 2.7362,-17.25009 1.2071,-36.10967 -1.9435,-23.9707 -17.2444,-44.20408 -38.8555,-60.7914 -18.3377,-12.40665 -44.36693,-15.47641 -61.06243,-16.37501 -2.9086,-0.12167 -5.8739,-0.20627 -8.3748,-0.1875 z"
       style="fill:none;stroke:#e6e6e6;stroke-width:14;stroke-miterlimit:4;stroke-dasharray:none" />
  </g>
</svg>
